<svg xmlns="http://www.w3.org/2000/svg" xmlns:xlink="http://www.w3.org/1999/xlink" width="90" height="90" viewBox="0 0 90 90"><g id="surface70541208"><path style="stroke:none;fill-rule:nonzero;fill:#959da5;fill-opacity:1" d="M 72 12 L 18 12 C 14.683594 12 12 14.683594 12 18 L 12 72 C 12 75.316406 14.683594 78 18 78 L 48 78 L 48 51 L 39 51 L 39 42 L 48 42 L 48 37.167969 C 48 28.015625 52.457031 24 60.0625 24 C 63.703125 24 65.632812 24.269531 66.542969 24.394531 L 66.542969 33 L 61.355469 33 C 58.128906 33 57 34.703125 57 38.152344 L 57 42 L 66.460938 42 L 65.179688 51 L 57 51 L 57 78 L 72 78 C 75.316406 78 78 75.316406 78 72 L 78 18 C 78 14.683594 75.3125 12 72 12 Z M 72 12"/></g></svg>